<svg xmlns="http://www.w3.org/2000/svg" width="1024" height="1024" viewBox="0 0 1024 1024" fill="none">
  <rect width="1024" height="1024" fill="#4F46E5"/>
  <path d="M512 350C429.5 350 362 417.5 362 500C362 582.5 429.5 650 512 650C594.5 650 662 582.5 662 500C662 417.5 594.5 350 512 350ZM512 600C457.4 600 412 554.6 412 500C412 445.4 457.4 400 512 400C566.6 400 612 445.4 612 500C612 554.6 566.6 600 512 600Z" fill="white"/>
  <path d="M512 264C376.6 264 267 373.6 267 509C267 609.4 325.8 695.6 410.2 741L512 874L613.8 741C698.2 695.6 757 609.4 757 509C757 373.6 647.4 264 512 264ZM613.8 691L512 824L410.2 691C335.8 650.4 282 585.4 282 509C282 382 385 279 512 279C639 279 742 382 742 509C742 585.4 688.2 650.4 613.8 691Z" fill="white"/>
</svg>