<svg width="1024" height="1024" viewBox="0 0 1024 1024" fill="none" xmlns="http://www.w3.org/2000/svg">
  <rect width="1024" height="1024" fill="#4F46E5"/>
  <circle cx="512" cy="512" r="350" fill="white" fill-opacity="0.1"/>
  <circle cx="512" cy="512" r="250" fill="white" fill-opacity="0.2"/>
  <circle cx="512" cy="512" r="150" fill="white"/>
  <circle cx="512" cy="512" r="75" fill="#4F46E5"/>
  <path d="M512 250C620.833 250 710 339.167 710 448C710 508.833 685.167 561.667 645.833 601L762.5 717.667C774.167 729.333 774.167 748.833 762.5 760.5C750.833 772.167 731.333 772.167 719.667 760.5L603 643.833C563.667 683.167 510.833 708 450 708C341.167 708 252 618.833 252 510C252 401.167 341.167 312 450 312" stroke="white" stroke-width="30" stroke-linecap="round"/>
</svg>